<svg width="23" height="23" viewBox="0 0 23 23" fill="none" xmlns="http://www.w3.org/2000/svg">
<path d="M4.9375 10.5625H16.0562L12.6531 6.47495C12.494 6.2835 12.4174 6.03667 12.4403 5.78877C12.4631 5.54088 12.5835 5.31221 12.775 5.15308C12.9665 4.99395 13.2133 4.91739 13.4612 4.94025C13.7091 4.9631 13.9377 5.0835 14.0969 5.27495L18.7844 10.9C18.8159 10.9447 18.8441 10.9917 18.8688 11.0406C18.8688 11.0875 18.8687 11.1156 18.9344 11.1625C18.9769 11.2699 18.9991 11.3844 19 11.5C18.9991 11.6155 18.9769 11.73 18.9344 11.8375C18.9344 11.8843 18.9344 11.9125 18.8688 11.9593C18.8441 12.0082 18.8159 12.0552 18.7844 12.1L14.0969 17.725C14.0087 17.8308 13.8983 17.9159 13.7736 17.9742C13.6488 18.0326 13.5127 18.0627 13.375 18.0625C13.156 18.0629 12.9437 17.9866 12.775 17.8468C12.6801 17.7681 12.6016 17.6715 12.5441 17.5624C12.4866 17.4533 12.4511 17.334 12.4398 17.2112C12.4285 17.0884 12.4415 16.9646 12.4781 16.8468C12.5147 16.7291 12.5742 16.6197 12.6531 16.525L16.0562 12.4375H4.9375C4.68886 12.4375 4.4504 12.3387 4.27459 12.1629C4.09877 11.9871 4 11.7486 4 11.5C4 11.2513 4.09877 11.0129 4.27459 10.837C4.4504 10.6612 4.68886 10.5625 4.9375 10.5625Z" fill="white"/>
</svg>
